<svg width="70" height="70" viewBox="0 0 70 70" fill="none" xmlns="http://www.w3.org/2000/svg">
<path d="M33.5417 40.8333C45.6226 40.8333 55.4167 45.4037 55.4167 51.0416V58.3333H11.6667V51.0416C11.6667 45.4037 21.4609 40.8333 33.5417 40.8333ZM52.5001 51.0416C52.5001 47.0166 44.0126 43.75 33.5417 43.75C23.0709 43.75 14.5834 47.0166 14.5834 51.0416V55.4166H52.5001V51.0416ZM33.5417 14.5833C36.2492 14.5833 38.8457 15.6588 40.7601 17.5733C42.6746 19.4877 43.7501 22.0842 43.7501 24.7916C43.7501 27.4991 42.6746 30.0956 40.7601 32.01C38.8457 33.9245 36.2492 35 33.5417 35C30.8343 35 28.2378 33.9245 26.3234 32.01C24.4089 30.0956 23.3334 27.4991 23.3334 24.7916C23.3334 22.0842 24.4089 19.4877 26.3234 17.5733C28.2378 15.6588 30.8343 14.5833 33.5417 14.5833ZM33.5417 17.5C31.6079 17.5 29.7532 18.2682 28.3858 19.6357C27.0183 21.0031 26.2501 22.8578 26.2501 24.7916C26.2501 26.7255 27.0183 28.5802 28.3858 29.9476C29.7532 31.3151 31.6079 32.0833 33.5417 32.0833C35.4756 32.0833 37.3303 31.3151 38.6977 29.9476C40.0652 28.5802 40.8334 26.7255 40.8334 24.7916C40.8334 22.8578 40.0652 21.0031 38.6977 19.6357C37.3303 18.2682 35.4756 17.5 33.5417 17.5Z" fill="white"/>
</svg>
